<svg id="e55xlu9jycn1" xmlns="http://www.w3.org/2000/svg" xmlns:xlink="http://www.w3.org/1999/xlink" viewBox="0 0 800 400" shape-rendering="geometricPrecision" text-rendering="geometricPrecision"><style><![CDATA[#e55xlu9jycn13_to {animation: e55xlu9jycn13_to__to 8000ms linear infinite normal forwards}@keyframes e55xlu9jycn13_to__to { 0% {transform: translate(0px,22.399994px)} 25% {transform: translate(-157.483564px,22.399994px)} 50% {transform: translate(-306.920523px,23.549509px)} 75% {transform: translate(-372.442881px,23.549509px)} 100% {transform: translate(-424.949951px,22.399994px)} }#e55xlu9jycn15_to {animation: e55xlu9jycn15_to__to 8000ms linear infinite normal forwards}@keyframes e55xlu9jycn15_to__to { 0% {transform: translate(-1.097393px,26.366140px)} 25% {transform: translate(-158.580957px,26.366140px)} 50% {transform: translate(-308.017916px,27.515655px)} 75% {transform: translate(-373.540274px,27.515655px)} 100% {transform: translate(-426.047344px,26.366140px)} }#e55xlu9jycn19_to {animation: e55xlu9jycn19_to__to 8000ms linear infinite normal forwards}@keyframes e55xlu9jycn19_to__to { 0% {transform: translate(-12.879070px,176.767992px)} 25% {transform: translate(182.770596px,3.893868px)} 50% {transform: translate(365.543491px,7.487572px)} 75% {transform: translate(436.945584px,121.268139px)} 100% {transform: translate(787.120930px,232.771101px)} }#e55xlu9jycn22_to {animation: e55xlu9jycn22_to__to 8000ms linear infinite normal forwards}@keyframes e55xlu9jycn22_to__to { 0% {transform: translate(0px,0px)} 25% {transform: translate(-50.578663px,-1.584068px)} 50% {transform: translate(-100.007811px,-1.584068px)} 75% {transform: translate(-131.044718px,-1.584068px)} 100% {transform: translate(-170.774963px,-1.584068px)} }#e55xlu9jycn23_to {animation: e55xlu9jycn23_to__to 8000ms linear infinite normal forwards}@keyframes e55xlu9jycn23_to__to { 0% {transform: translate(0px,0px)} 25% {transform: translate(-50.578663px,-1.584068px)} 50% {transform: translate(-100.007811px,-1.584068px)} 75% {transform: translate(-131.044718px,-1.584068px)} 100% {transform: translate(-170.774963px,-1.584068px)} }#e55xlu9jycn24_to {animation: e55xlu9jycn24_to__to 8000ms linear infinite normal forwards}@keyframes e55xlu9jycn24_to__to { 0% {transform: translate(0px,0px)} 25% {transform: translate(-50.578663px,-1.584068px)} 50% {transform: translate(-100.007811px,-1.584068px)} 75% {transform: translate(-131.044718px,-1.584068px)} 100% {transform: translate(-170.774963px,-1.584068px)} }]]></style><defs><path id="e55xlu9jycn2" d="M254.560000,109.110000C255.140000,109.110000,255.520000,108.630000,255.520000,108.150000C255.520000,107.580000,255.140000,107.190000,254.560000,107.190000C254.080000,107.190000,253.600000,107.580000,253.600000,108.150000C253.600000,108.630000,254.080000,109.110000,254.560000,109.110000Z"/><path id="e55xlu9jycn3" d="M253.890000,139.250000L246.430000,156.770000L239.060000,174.280000C239.110000,189.720000,239.150000,198.310000,239.150000,200.020000C239.340000,222.320000,239.150000,225.860000,237.910000,225.860000C237.050000,225.860000,236.380000,227.010000,236.190000,228.920000C236.170000,229.130000,236.070000,230.190000,235.900000,232.080000L230.160000,232.080000L224.420000,232.080000L224.130000,228.920000L223.840000,225.860000L217.620000,225.860000L211.500000,225.860000L211.500000,244.430000L211.500000,263.090000C209.950000,263.260000,209.080000,263.360000,208.910000,263.370000C206.810000,263.570000,206.140000,264.240000,205.950000,266.250000C205.660000,268.830000,205.470000,268.930000,199.440000,268.930000C199.030000,268.930000,196.990000,268.930000,193.310000,268.930000L193.310000,266.050000L193.310000,263.180000L187.090000,263.180000L180.870000,263.180000C180.870000,259.450000,180.870000,257.380000,180.870000,256.960000C180.870000,250.930000,180.970000,250.740000,183.260000,250.740000C185.560000,250.740000,185.660000,250.550000,185.660000,243.570000C185.660000,237.150000,185.470000,236.390000,183.840000,236.390000C182.690000,236.390000,181.830000,237.150000,181.640000,238.300000C181.450000,239.450000,180.970000,240.410000,180.390000,240.500000C179.050000,240.790000,178.580000,203.080000,179.920000,201.460000C180.590000,200.690000,179.340000,196.860000,175.610000,188.540000C171.210000,178.680000,170.350000,175.810000,170.350000,171.220000C170.350000,168.150000,170.820000,165.380000,171.400000,165.090000C171.970000,164.710000,176.370000,164.230000,181.160000,164.040000C190.730000,163.660000,202.600000,162.120000,199.530000,161.740000C197.810000,161.550000,197.910000,161.450000,200.010000,160.690000C201.540000,160.210000,198.670000,160.020000,191.690000,160.210000C183.460000,160.400000,180.870000,160.120000,180.490000,159.160000C180.110000,158.390000,178.290000,157.910000,175.230000,157.910000C172.350000,157.910000,170.350000,157.440000,170.060000,156.670000C169.770000,156.100000,169.480000,160.210000,169.480000,165.860000C169.390000,176.190000,169.390000,176.380000,164.600000,187.390000C164.280000,188.140000,162.650000,191.870000,159.720000,198.590000C159.780000,211.330000,159.810000,218.420000,159.820000,219.830000C159.820000,233.900000,159.530000,241.170000,158.860000,241.170000C158.380000,241.170000,157.900000,240.120000,157.900000,238.780000C157.900000,236.870000,157.430000,236.390000,155.510000,236.390000C153.210000,236.390000,153.120000,236.580000,153.120000,243.570000C153.120000,250.550000,153.210000,250.740000,155.510000,250.740000C155.670000,250.740000,156.470000,250.740000,157.900000,250.740000L157.900000,294.860000L157.900000,338.980000C156.070000,338.630000,155.050000,338.440000,154.840000,338.400000C153.120000,338.020000,151.010000,337.540000,150.250000,337.450000C149.480000,337.250000,145.650000,336.590000,141.920000,335.920000C141.460000,335.830000,139.130000,335.420000,134.940000,334.670000L134.840000,330.270000L134.740000,325.870000C134.170000,328.160000,133.850000,329.440000,133.790000,329.690000C133.210000,331.800000,132.640000,333.620000,132.540000,333.810000C132.450000,333.910000,128.330000,333.240000,123.360000,332.180000C118.380000,331.230000,112.730000,330.080000,110.630000,329.690000C110.390000,329.660000,109.170000,329.470000,106.990000,329.120000C107.340000,325.620000,107.530000,323.670000,107.570000,323.280000C108.040000,319.360000,107.950000,317.730000,107.280000,318.210000C106.700000,318.500000,106.230000,319.740000,106.230000,320.890000C106.230000,322.040000,105.940000,324.050000,105.560000,325.200000C105.170000,326.920000,104.790000,327.110000,104.220000,326.150000C103.550000,325.200000,103.360000,325.290000,103.360000,326.540000C103.360000,327.590000,102.690000,328.260000,101.730000,328.260000C97.710000,328.070000,81.250000,325.580000,80.670000,325.010000C80.290000,324.720000,81.340000,323,82.970000,321.270000C84.500000,319.650000,86.420000,316.680000,87.090000,314.860000C87.850000,313.040000,88.810000,311.220000,89.290000,310.940000C90.340000,310.170000,92.830000,304.050000,93.500000,300.220000C94.170000,296.490000,91.970000,296.870000,87.090000,301.180000C82.300000,305.480000,78.090000,312.090000,75.700000,319.360000C74.360000,323.470000,73.310000,325.010000,71.870000,325.200000C69.480000,325.580000,69.290000,323.760000,70.820000,315.820000C71.870000,310.360000,71.200000,305.960000,69.480000,306.540000C67.760000,307.110000,63.830000,314.860000,62.680000,320.120000C61.820000,323.760000,61.150000,325.010000,59.620000,325.200000C57.990000,325.480000,57.520000,324.720000,56.560000,320.030000C55.980000,316.970000,55.510000,311.700000,55.510000,308.160000C55.510000,296.870000,50.430000,284.330000,42.680000,276.290000C37.800000,271.320000,35.410000,270.550000,35.410000,274C35.410000,276.580000,37.710000,283.950000,40.290000,289.690000C41.250000,291.990000,42.110000,294.190000,42.110000,294.670000C42.110000,295.150000,43.830000,297.830000,45.940000,300.600000C48.040000,303.470000,49.760000,306.250000,49.760000,306.820000C49.760000,307.400000,50.720000,309.790000,51.960000,312.090000C54.170000,316.110000,56.940000,325.290000,56.180000,325.960000C56.080000,326.150000,52.350000,327.210000,48.040000,328.350000C40.290000,330.460000,40.100000,330.460000,38.660000,328.640000C37.230000,326.820000,37.230000,326.920000,37.610000,328.830000C37.990000,330.750000,37.040000,331.130000,26.410000,334C20.100000,335.720000,14.260000,337.350000,13.690000,337.640000C12.820000,337.920000,12.440000,336.780000,12.350000,333.910000C12.250000,331.510000,12.060000,330.750000,11.770000,332.090000C10.910000,337.830000,10.430000,338.590000,7.560000,339.650000C5.840000,340.220000,3.450000,340.700000,2.300000,340.700000C2.140000,340.700000,1.380000,340.700000,0,340.700000L0,512.960000L0,685.220000L612.480000,685.220000L1224.950000,685.220000C1224.950000,586.280000,1224.950000,531.320000,1224.950000,520.330000C1224.950000,370.560000,1224.860000,355.250000,1223.420000,353.330000C1222.560000,352.090000,1221.510000,349.980000,1221.130000,348.550000C1220.550000,346.730000,1220.260000,348.450000,1220.170000,354.580000C1220.160000,355.150000,1220.090000,358.020000,1219.980000,363.190000C1218.200000,355.840000,1217.210000,351.760000,1217.010000,350.940000C1214.040000,338.590000,1212.230000,334.670000,1213.660000,343.760000C1214.140000,346.540000,1214.620000,361.950000,1214.910000,378.020000C1214.930000,379.970000,1215.060000,389.700000,1215.290000,407.210000C1214.480000,397.450000,1214.040000,392.030000,1213.950000,390.940000C1211.170000,355.440000,1206.960000,320.410000,1205.340000,318.880000C1204.950000,318.500000,1204.860000,327.490000,1205.140000,338.790000C1205.620000,359.170000,1204.860000,356.970000,1203.330000,333.710000C1202.750000,324.050000,1201.030000,320.790000,1201.030000,329.220000C1201.030000,332.180000,1200.170000,336.200000,1198.730000,339.550000C1197.490000,342.520000,1194.430000,350.560000,1191.940000,357.450000C1189.450000,364.240000,1187.060000,370.270000,1186.670000,370.650000C1186.390000,371.040000,1185.530000,368.260000,1184.860000,364.430000C1182.660000,352.090000,1181.990000,353.910000,1181.990000,371.800000C1181.990000,387.210000,1181.700000,390.270000,1179.310000,400.700000C1177.870000,407.210000,1176.430000,412.470000,1176.150000,412.470000C1175.860000,412.470000,1174.900000,408.170000,1173.950000,402.900000C1171.460000,388.170000,1167.250000,368.450000,1166.670000,368.450000C1166.390000,368.450000,1166.190000,377.830000,1166.290000,389.220000C1166.480000,414.680000,1165.330000,411.610000,1163.710000,382.330000C1163.040000,370.750000,1162.080000,360.890000,1161.700000,360.320000C1161.220000,359.840000,1160.840000,362.040000,1160.840000,365.390000C1160.840000,374.960000,1159.300000,372.190000,1158.630000,361.470000C1157.580000,344.050000,1154.810000,317.250000,1153.950000,316.300000C1153.560000,315.820000,1153.180000,327.690000,1153.180000,342.610000C1153.080000,380.610000,1150.310000,423.480000,1148.110000,419.560000C1146.380000,416.590000,1146.770000,364.720000,1148.680000,348.930000C1150.210000,335.630000,1150.310000,331.320000,1148.970000,335.630000C1147.440000,340.700000,1140.360000,374.390000,1137.200000,391.610000C1135.190000,402.620000,1133.370000,411.520000,1133.080000,411.520000C1132.700000,411.520000,1131.650000,404.910000,1130.590000,396.880000C1129.060000,384.820000,1128.780000,377.070000,1128.970000,351.710000C1129.060000,332.090000,1128.870000,322.420000,1128.300000,324.910000C1127.820000,327.020000,1127.440000,330.170000,1127.440000,331.900000C1127.340000,333.620000,1126.860000,334.860000,1126.290000,334.770000C1125.620000,334.580000,1124.570000,336.870000,1123.800000,339.740000C1123.130000,342.610000,1122.080000,345.770000,1121.600000,346.630000C1121.120000,347.490000,1119.970000,351.610000,1119.110000,355.630000C1118.340000,359.740000,1116.620000,365.010000,1115.470000,367.400000C1114.230000,369.790000,1111.170000,377.930000,1108.580000,385.390000C1106.100000,392.950000,1103.700000,398.500000,1103.320000,397.830000C1102.940000,397.260000,1102.360000,393.050000,1102.080000,388.550000C1101.690000,384.050000,1100.830000,375.440000,1100.070000,369.410000C1098.630000,358.690000,1098.730000,358.020000,1101.020000,345.100000C1104.090000,327.880000,1103.510000,326.730000,1099.010000,340.990000C1098.900000,341.360000,1098.320000,343.250000,1097.290000,346.630000C1096.600000,344.390000,1096.220000,343.150000,1096.140000,342.900000C1095.090000,339.360000,1094.990000,339.550000,1094.900000,346.920000C1094.800000,352.180000,1093.940000,357.540000,1092.120000,364.150000C1090.590000,369.410000,1088.390000,377.740000,1087.150000,382.710000C1085.900000,387.980000,1084.660000,391.130000,1084.280000,390.370000C1083.890000,389.600000,1082.650000,382.520000,1081.400000,374.670000C1080.260000,366.730000,1078.920000,359.940000,1078.440000,359.360000C1077.960000,358.880000,1077.580000,365.490000,1077.480000,375.150000C1077.480000,384.340000,1076.810000,397.450000,1076.140000,404.340000C1076.050000,405.170000,1075.610000,409.320000,1074.800000,416.780000C1074.970000,400.990000,1075.070000,392.220000,1075.090000,390.460000C1075.470000,362.040000,1074.990000,360.510000,1071.360000,378.310000C1070.400000,382.900000,1069.440000,386.440000,1069.250000,386.250000C1068.960000,385.970000,1068.010000,380.700000,1067.150000,374.480000C1066.190000,367.880000,1065.040000,363.290000,1064.470000,363.380000C1060.160000,364.240000,1065.230000,331.320000,1071.170000,319.360000C1072.980000,315.910000,1075.470000,311.610000,1076.810000,309.880000C1078.060000,308.160000,1079.680000,305.200000,1080.450000,303.380000C1081.120000,301.560000,1082.270000,299.360000,1082.840000,298.590000C1084.180000,296.870000,1086.190000,290.080000,1086.190000,287.200000C1086.190000,284.140000,1084.560000,284.720000,1079.400000,289.880000C1073.270000,295.910000,1068.960000,305.200000,1068.390000,313.230000C1068.100000,316.490000,1066.570000,326.060000,1064.850000,334.480000C1062.070000,348.360000,1061.790000,349.410000,1061.120000,345.960000C1059.780000,338.980000,1060.060000,325.200000,1061.600000,320.600000C1063.320000,315.630000,1064.660000,300.790000,1063.700000,297.730000C1062.740000,294.570000,1061.600000,295.340000,1058.720000,300.700000C1055.470000,307.210000,1054.510000,319.740000,1056.810000,326.920000C1059.970000,336.490000,1061.690000,359.840000,1059.590000,361.950000C1059.110000,362.420000,1057.770000,358.020000,1056.520000,352.180000C1055.280000,346.440000,1054.130000,341.660000,1053.940000,341.660000C1053.750000,341.660000,1053.750000,350.370000,1053.840000,360.990000C1053.860000,362.280000,1053.920000,368.760000,1054.030000,380.420000L1049.630000,393.330000L1045.130000,406.250000C1045.080000,386.730000,1045.050000,375.890000,1045.040000,373.720000C1044.850000,329.600000,1044.370000,327.590000,1040.450000,356.010000C1036.520000,384.430000,1036.330000,385.870000,1035.950000,385.490000C1035.760000,385.300000,1035.090000,377.350000,1034.510000,367.690000C1033.270000,350.080000,1031.740000,344.430000,1031.550000,357.160000C1031.550000,361.370000,1031.260000,363.380000,1030.780000,362.330000C1029.820000,359.840000,1029.150000,361.080000,1027.810000,368.450000C1026.380000,375.530000,1024.750000,379.550000,1025.610000,373.720000C1025.900000,371.610000,1027.140000,364.530000,1028.390000,357.930000C1029.630000,351.320000,1030.680000,345.580000,1030.680000,345.010000C1030.680000,340.130000,1021.980000,366.160000,1016.330000,387.780000C1014.610000,394.580000,1012.880000,400.030000,1012.500000,400.030000C1012.120000,400.030000,1011.540000,390.460000,1011.260000,378.690000C1010.590000,357.640000,1008.190000,322.230000,1006.850000,315.820000C1006.470000,313.900000,1005.520000,326.440000,1004.460000,346.920000C1002.450000,386.640000,1001.690000,395.920000,1000.730000,392.380000C996.710000,377.350000,995.370000,367.780000,995.950000,359.070000C996.330000,352.950000,996.140000,350.080000,995.560000,350.750000C994.610000,351.710000,989.050000,376.680000,986.570000,390.940000C985.420000,397.640000,983.790000,401.370000,983.790000,397.350000C983.790000,396.210000,982.260000,387.210000,980.350000,377.350000C980.120000,376.150000,978.970000,370.160000,976.900000,359.360000C977.880000,344.830000,978.420000,336.760000,978.530000,335.150000C979.480000,321.850000,980.060000,310.750000,979.770000,310.550000C979.580000,310.360000,977.950000,317.450000,976.140000,326.350000C974.320000,335.340000,972.590000,342.610000,972.210000,342.610000C971.920000,342.610000,971.060000,338.210000,970.300000,332.760000C970.210000,332.110000,969.760000,328.850000,968.960000,323C968.610000,328.450000,968.420000,331.480000,968.380000,332.090000C968,337.060000,967.710000,347.880000,967.620000,356.010000C967.620000,366.920000,966.850000,375.630000,964.940000,388.740000C963.500000,398.690000,962.070000,406.730000,961.780000,406.730000C961.010000,406.730000,957.760000,384.150000,957.280000,375.630000C957,371.900000,957.760000,358.600000,958.810000,346.060000C959.960000,333.430000,960.820000,321.850000,960.730000,320.220000C960.630000,317.540000,960.540000,317.640000,959.390000,321.560000C956.610000,331.230000,958.720000,318.590000,962.350000,303.380000C963.220000,299.930000,964.460000,296.490000,965.130000,295.720000C965.900000,294.960000,967.330000,292.180000,968.480000,289.600000C969.530000,287.010000,971.640000,283.470000,973.170000,281.750000C974.700000,280.030000,976.420000,276.960000,977.090000,274.950000C977.760000,272.940000,978.720000,270.740000,979.290000,270.070000C981.970000,266.720000,985.130000,253.610000,983.220000,253.610000C980.540000,253.610000,973.260000,260.890000,969.150000,267.780000C965.510000,274.090000,962.740000,283.470000,962.740000,289.880000C962.740000,292.850000,961.300000,302.130000,959.480000,310.550000C957.670000,318.980000,955.460000,330.360000,954.600000,335.920000C952.880000,346.060000,951.350000,351.130000,951.250000,346.540000C951.250000,345.290000,950.870000,342.710000,950.300000,340.800000C947.230000,329.410000,943.690000,312.560000,943.210000,307.300000C942.350000,297.440000,936.990000,287.300000,929.340000,280.980000C925.990000,278.110000,924.940000,277.730000,924.360000,278.780000C923.600000,280.120000,926.080000,288.640000,927.900000,291.130000C928.480000,291.800000,929.530000,293.900000,930.200000,295.720000C930.870000,297.540000,932.690000,300.310000,934.120000,301.940000C935.560000,303.470000,937.470000,306.540000,938.330000,308.640000C939.290000,310.750000,940.630000,313.140000,941.300000,314C943.980000,316.970000,949.530000,341.370000,949.720000,350.460000C949.720000,354.960000,949.530000,358.500000,949.150000,358.210000C948.670000,358.020000,948.380000,358.880000,948.380000,360.130000C948.380000,362.710000,947.620000,365.100000,940.820000,384.720000C940.500000,385.650000,938.910000,390.270000,936.040000,398.600000C935.980000,393.090000,935.950000,390.020000,935.940000,389.410000C935.850000,369.120000,934.600000,336.780000,934.030000,338.020000C932.880000,339.930000,923.690000,375.820000,922.450000,383C921.010000,390.660000,919.670000,390.660000,919.670000,383C919.670000,380.030000,918.520000,367.210000,917.180000,354.580000C915.840000,341.940000,914.500000,325.960000,914.220000,318.980000C913.840000,308.830000,913.450000,306.540000,912.400000,306.920000C911.440000,307.300000,911.060000,306.540000,911.060000,304.240000C911.060000,302.420000,910.680000,300.410000,910.290000,299.840000C909.820000,299.170000,909.530000,307.780000,909.530000,318.980000C909.530000,333.430000,908.860000,344.340000,907.420000,356.970000C906.270000,366.730000,904.840000,379.080000,904.270000,384.530000C903.600000,389.890000,903.020000,394.200000,902.830000,394.100000C902.640000,393.810000,899.580000,350.560000,899.580000,347.490000C899.580000,344.050000,898.040000,348.160000,897.570000,352.950000C897.090000,357.350000,896.990000,356.390000,896.800000,348.070000C896.800000,342.420000,896.320000,337.830000,895.840000,337.830000C895.360000,337.830000,894.220000,343.670000,893.360000,350.840000C891.540000,364.340000,890.680000,365.390000,889.530000,355.530000C888.470000,345.680000,882.250000,306.730000,881.680000,306.250000C881.390000,305.960000,881.490000,314.190000,881.870000,324.530000C882.540000,343.090000,882.540000,343.670000,879,367.590000C876.990000,380.990000,874.980000,392.280000,874.500000,392.860000C874.120000,393.330000,873.740000,391.230000,873.740000,388.070000C873.740000,379.550000,871.150000,352.570000,868.860000,337.830000C867.800000,330.750000,866.660000,323.280000,866.370000,321.270000C865.410000,314.770000,864.450000,316.680000,863.880000,326.630000C863.590000,331.990000,862.640000,348.830000,861.770000,364.150000C859.960000,397.070000,859.860000,398.220000,857.850000,397.450000C856.610000,396.970000,856.420000,393.140000,856.700000,366.920000C856.890000,350.460000,856.700000,337.250000,856.420000,337.640000C854.880000,339.360000,845.030000,385.970000,845.030000,391.520000C845.030000,393.050000,844.450000,393.430000,842.440000,393.140000C842.260000,393.120000,841.370000,393.030000,839.760000,392.860000C839.020000,384.240000,838.600000,379.460000,838.520000,378.500000C837.280000,363.760000,837.660000,356.390000,840.620000,334.190000C841.290000,329.410000,841.580000,325.390000,841.200000,325.390000C840.620000,325.390000,833.830000,353.810000,830,372.470000C829.140000,377.160000,828.090000,380.890000,827.710000,380.890000C827.040000,380.890000,825.890000,367.880000,825.890000,360.510000C825.890000,352.280000,824.260000,355.820000,823.300000,366.250000C822.440000,375.920000,822.350000,376.110000,822.250000,370.080000C822.150000,366.440000,821.680000,363.760000,821.200000,364.050000C820.820000,364.340000,819.860000,369.310000,819.190000,375.150000C818.420000,380.990000,817.560000,385.970000,817.080000,386.250000C816.700000,386.540000,815.460000,386.540000,814.500000,386.160000C812.870000,385.680000,812.680000,383.960000,812.010000,365.290000C811.530000,348.830000,811.630000,342.330000,812.970000,331.320000C814.590000,317.730000,814.500000,311.610000,812.780000,319.650000C812.300000,322.040000,811.440000,323.860000,810.860000,323.760000C810.290000,323.670000,809.620000,326.440000,809.240000,330.460000C808.850000,334.290000,806.840000,347.400000,804.640000,359.550000C800.430000,383.570000,800.620000,383.100000,794.980000,380.990000C792.970000,380.220000,792.490000,378.980000,791.050000,371.130000C790.190000,366.250000,788.950000,359.840000,788.370000,356.970000C787.420000,352.180000,787.220000,351.900000,786.550000,354.390000C786.170000,355.820000,785.500000,361.750000,785.210000,367.500000C784.450000,379.360000,784.740000,378.980000,776.600000,376.300000C776.280000,376.190000,774.690000,375.650000,771.820000,374.670000C771.640000,370.140000,771.550000,367.620000,771.530000,367.110000C771.240000,360.320000,771.720000,358.210000,776.030000,344.530000C778.990000,335.440000,781.580000,328.830000,782.820000,327.780000C783.880000,326.820000,784.740000,325.480000,784.740000,324.720000C784.740000,324.050000,786.550000,321.460000,788.760000,319.070000C792.680000,314.860000,794.780000,311.510000,799.670000,301.650000C804.350000,292.180000,800.810000,291.890000,791.820000,300.980000C786.080000,306.820000,782.250000,314.100000,780.810000,322.040000C779.660000,328.450000,772.300000,353.140000,771.150000,354.480000C770.760000,355.060000,770.380000,351.320000,770.380000,346.250000C770.380000,341.080000,770.760000,336.680000,771.340000,336.390000C771.910000,336.110000,772.300000,334.770000,772.300000,333.430000C772.300000,332.090000,773.160000,329.020000,774.110000,326.540000C777.270000,318.980000,779.570000,305.670000,778.130000,303.470000C776.980000,301.650000,775.740000,302.610000,772.770000,307.680000C769.900000,312.660000,767.130000,324.620000,767.990000,328.260000C768.950000,331.900000,770.290000,360.130000,769.520000,361.470000C769.140000,362.140000,768.180000,355.250000,767.220000,346.160000C766.360000,337.160000,764.930000,325.200000,764.070000,319.650000C763.200000,314.100000,762.820000,307.590000,763.110000,305.100000C763.400000,302.610000,763.200000,297.830000,762.630000,294.570000C761.670000,288.260000,756.220000,275.530000,753.160000,272.270000C752.100000,271.220000,750.480000,269.400000,749.330000,268.160000C746.650000,265.190000,744.540000,265.380000,744.540000,268.640000C744.640000,271.800000,746.550000,279.170000,748.080000,281.840000C748.660000,282.900000,749.420000,285.290000,749.810000,287.110000C750.190000,288.930000,751.910000,292.560000,753.630000,295.240000C755.360000,297.830000,757.370000,301.750000,758.040000,303.860000C758.610000,305.960000,759.760000,308.550000,760.330000,309.600000C761.670000,311.700000,764.740000,330.270000,764.540000,334.670000C764.350000,337.160000,764.350000,337.060000,763.680000,334C763.300000,332.090000,762.920000,339.840000,762.820000,351.420000C762.730000,366.250000,762.440000,372.280000,761.670000,372.280000C761,372.280000,758.800000,371.800000,756.700000,371.130000C756.450000,371.060000,755.200000,370.670000,752.960000,369.980000C753.250000,365.390000,753.410000,362.840000,753.440000,362.330000C755.450000,335.250000,755.170000,332.760000,751.620000,348.830000C750.670000,353.050000,749.810000,355.820000,749.610000,355.060000C749.420000,354.290000,748.270000,346.250000,747.030000,337.350000C746.880000,336.270000,746.110000,330.840000,744.730000,321.080000C744.680000,334.980000,744.640000,342.700000,744.640000,344.240000C744.540000,357.060000,744.260000,367.500000,743.870000,367.500000C742.050000,367.500000,727.700000,362.330000,727.220000,361.470000C726.840000,360.990000,726.170000,360.800000,725.690000,361.080000C725.120000,361.470000,723.110000,361.280000,721.190000,360.700000C720.960000,360.640000,719.780000,360.320000,717.650000,359.740000C718.050000,348.830000,718.280000,342.770000,718.320000,341.560000C718.700000,331.610000,718.800000,323.470000,718.510000,323.470000C718.230000,323.470000,716.790000,331.130000,715.350000,340.410000C713.920000,349.790000,712.580000,357.540000,712.480000,357.730000C711.810000,358.600000,694.110000,354.390000,693.150000,353.140000C692.100000,351.900000,692,351.900000,691.910000,353.140000C691.910000,354.290000,690.860000,354.480000,686.640000,354.290000C686.290000,354.260000,684.540000,354.140000,681.380000,353.910000C681.380000,350.690000,681.380000,348.900000,681.380000,348.550000C681.380000,340.410000,679.850000,339.360000,679.280000,346.920000C678.990000,350.460000,678.320000,353.620000,677.940000,354.100000C677.460000,354.480000,675.450000,355.060000,673.340000,355.340000C673.090000,355.380000,671.850000,355.570000,669.610000,355.920000C669.950000,353.220000,670.150000,351.720000,670.180000,351.420000C670.660000,347.020000,670.660000,346.920000,669.420000,349.790000C668.650000,351.320000,668.080000,353.330000,667.980000,354.190000C667.980000,356.110000,666.070000,357.930000,664.150000,357.930000C662.820000,357.930000,662.910000,356.780000,664.730000,347.590000C665.880000,341.940000,667.700000,334.580000,668.940000,331.130000C670.660000,326.150000,670.950000,323.570000,670.570000,318.210000C669.990000,310.840000,666.740000,302.040000,664.820000,302.610000C663.100000,303.190000,662.430000,311.320000,663.390000,320.120000C665.020000,335.050000,665.020000,339.360000,663.580000,346.820000C662.820000,351.040000,662.050000,354.580000,661.860000,354.770000C661.280000,355.340000,658.320000,328.640000,658.030000,320.120000C657.650000,309.500000,654.580000,301.180000,648.360000,294.290000C645.010000,290.460000,643.870000,289.790000,642.910000,290.740000C641.950000,291.700000,642.050000,293.040000,643.290000,297.440000C645.680000,305.960000,648.360000,312.850000,650.470000,315.630000C651.520000,317.060000,652.960000,319.930000,653.630000,322.040000C654.300000,324.140000,655.250000,326.350000,655.730000,326.920000C656.590000,328.160000,658.800000,340.990000,659.940000,351.610000C659.990000,352.040000,660.210000,354.210000,660.610000,358.120000C657.510000,357.720000,655.790000,357.490000,655.450000,357.450000C652.580000,357.060000,649.030000,355.820000,647.410000,354.580000C645.880000,353.330000,641.380000,350.840000,637.650000,348.930000C633.820000,347.020000,630.660000,345.010000,630.660000,344.530000C630.660000,344.050000,629.990000,343.860000,629.220000,344.150000C627.020000,345.010000,625.110000,342.900000,624.440000,338.690000C624.060000,336.680000,623.390000,334.960000,623,334.960000C622.530000,334.960000,622.430000,336.490000,622.720000,338.310000C623,340.130000,622.910000,341.660000,622.430000,341.660000C621.950000,341.660000,616.500000,339.650000,610.370000,337.160000C609.620000,336.860000,605.850000,335.360000,599.080000,332.660000C599.080000,330.540000,599.080000,329.360000,599.080000,329.120000C599.080000,327.110000,598.700000,325.200000,598.120000,324.910000C597.550000,324.530000,597.170000,325.870000,597.170000,328.070000C597.170000,328.320000,597.170000,329.600000,597.170000,331.900000L585.590000,327.490000L574.010000,323.090000C574.290000,320.910000,574.450000,319.700000,574.480000,319.450000C574.770000,317.450000,574.580000,315.820000,574.100000,315.820000C573.620000,315.820000,573.240000,316.780000,573.240000,317.920000C573.240000,321.560000,571.900000,322.900000,569.600000,321.660000C568.550000,321.080000,562.330000,320.120000,555.820000,319.650000C539.750000,318.210000,531.230000,316.580000,521.080000,312.560000C498.590000,303.950000,476.490000,301.560000,460.310000,306.250000C458.500000,306.730000,454.090000,307.210000,450.650000,307.210000C450.220000,307.210000,448.080000,307.210000,444.240000,307.210000C444.870000,305.200000,445.220000,304.080000,445.290000,303.860000C445.860000,302.040000,445.960000,300.220000,445.670000,299.930000C444.910000,299.170000,441.840000,301.180000,437.540000,305.200000C434.570000,307.970000,433.520000,308.260000,424.620000,309.120000C419.260000,309.690000,413.230000,310.360000,411.320000,310.650000C407.680000,311.220000,407.680000,311.130000,407.680000,307.970000C407.680000,303.570000,405.190000,295.530000,401.940000,288.930000C399.160000,283.470000,392.180000,275.430000,389.310000,274.380000C385.960000,273.230000,387.490000,282.040000,392.370000,292.560000C393.420000,294.860000,394.280000,297.060000,394.280000,297.540000C394.280000,298.020000,395.810000,300.410000,397.730000,302.900000C399.550000,305.390000,401.460000,308.350000,401.940000,309.690000C402.990000,312.370000,405,311.700000,373.710000,318.780000C361.650000,321.460000,350.740000,323.860000,349.490000,324.140000C349.350000,324.180000,348.650000,324.340000,347.390000,324.620000L347.580000,287.970000L347.870000,251.220000C349.480000,251.050000,350.370000,250.950000,350.550000,250.930000C353.130000,250.650000,353.130000,250.550000,353.130000,243.470000C353.130000,236.580000,353.040000,236.390000,350.740000,236.390000C348.820000,236.390000,348.350000,236.870000,348.350000,238.780000C348.350000,240.120000,347.960000,241.170000,347.390000,241.170000C346.820000,241.170000,346.430000,233.800000,346.430000,221.080000C346.430000,209.400000,346.820000,200.980000,347.290000,200.980000C347.770000,200.980000,345.860000,195.810000,342.990000,189.400000C339.920000,182.600000,337.820000,176.380000,337.720000,174.370000C337.720000,172.460000,337.340000,169.970000,336.860000,168.920000C336.290000,167.580000,336,168.440000,336,172.360000C335.910000,176.580000,334.950000,179.920000,331.500000,187.680000C331.210000,188.340000,329.740000,191.660000,327.100000,197.630000C327.040000,210.260000,327.010000,217.280000,327.010000,218.680000C326.910000,231.790000,326.430000,239.830000,325.860000,240.020000C325.380000,240.120000,324.800000,239.350000,324.610000,238.300000C324.330000,236.870000,323.660000,236.390000,322.220000,236.580000C320.020000,236.870000,320.020000,236.960000,320.400000,246.630000C320.590000,250.360000,320.880000,250.740000,322.990000,250.740000C325.280000,250.740000,325.380000,250.930000,325.380000,256.960000C325.380000,257.370000,325.380000,259.410000,325.380000,263.090000C321.820000,263.260000,319.840000,263.360000,319.450000,263.370000C313.700000,263.660000,313.420000,263.760000,313.130000,266.250000C312.840000,268.830000,312.650000,268.930000,306.620000,268.930000C306.210000,268.930000,304.170000,268.930000,300.500000,268.930000C300.500000,267.200000,300.500000,266.250000,300.500000,266.050000C300.500000,263.470000,300.210000,263.180000,297.630000,263.180000C297.430000,263.180000,296.480000,263.180000,294.750000,263.180000L294.750000,244.520000L294.750000,225.860000C291.650000,225.860000,289.930000,225.860000,289.590000,225.860000C284.420000,225.860000,284.320000,225.860000,284.040000,228.920000C283.750000,232.080000,283.750000,232.080000,278.290000,232.270000C272.740000,232.370000,272.740000,232.370000,272.740000,229.590000C272.740000,227.970000,272.170000,226.530000,271.310000,226.240000C269.300000,225.380000,269.110000,179.260000,271.210000,177.630000C272.270000,176.770000,271.020000,173.130000,264.040000,157.440000C263.470000,156.160000,260.630000,149.780000,255.520000,138.300000L255.520000,129.970000L255.520000,121.640000C257.700000,121.070000,258.910000,120.750000,259.150000,120.690000C265.850000,118.960000,271.790000,118.390000,271.790000,119.540000C271.790000,121.070000,275.810000,120.780000,286.050000,118.680000C291.020000,117.620000,297.630000,116.670000,300.880000,116.670000C304.130000,116.570000,305.860000,116.380000,304.800000,116.090000C298.200000,114.750000,298.010000,114.470000,302.410000,113.800000C304.800000,113.410000,298.870000,113.220000,289.200000,113.410000C273.410000,113.700000,271.790000,113.610000,271.980000,112.170000C272.270000,110.730000,271.020000,110.540000,263.560000,110.260000C262.980000,110.240000,260.070000,110.140000,254.850000,109.970000L254.370000,124.610000L253.890000,139.250000ZM950.490000,353.140000C950.490000,351.800000,950.680000,351.320000,950.970000,351.900000C951.160000,352.570000,951.160000,353.720000,950.970000,354.290000C950.680000,354.960000,950.490000,354.480000,950.490000,353.140000ZM1030.010000,370.370000C1030.010000,367.970000,1030.210000,367.020000,1030.400000,368.170000C1030.590000,369.410000,1030.590000,371.320000,1030.400000,372.470000C1030.210000,373.720000,1030.010000,372.760000,1030.010000,370.370000Z"/><path id="e55xlu9jycn4" d="M339.060000,165C340.210000,164.610000,344.610000,164.130000,348.820000,164.040000C356.480000,163.750000,369.210000,162.120000,366.530000,161.840000C365.480000,161.650000,365.570000,161.360000,367.010000,160.690000C368.250000,160.120000,365.290000,159.920000,358.200000,160.120000C349.970000,160.310000,347.390000,160.020000,347.390000,159.160000C347.390000,158.300000,345.760000,157.910000,342.130000,157.910000C341.770000,157.910000,340.020000,157.910000,336.860000,157.910000L336.860000,161.840000C336.990000,164.390000,337.720000,165.440000,339.060000,165Z"/><path id="e55xlu9jycn5" d="M948.670000,309.600000C950.680000,313.430000,952.210000,324.810000,951.730000,333.430000C951.710000,334.010000,951.580000,336.910000,951.350000,342.140000C951.920000,337.250000,952.240000,334.540000,952.310000,334C952.780000,329.500000,953.840000,322.900000,954.700000,319.360000C956.900000,310.360000,956.040000,301.080000,952.500000,294C949.720000,288.540000,948.100000,287.110000,946.950000,289.020000C945.990000,290.550000,947.330000,307.210000,948.670000,309.600000Z"/><path id="e55xlu9jycn6" d="M87.590000,11.570000C87.750000,11.570000,88.200000,12,89.470000,13.320000C89.520000,13.370000,89.750000,13.620000,90.170000,14.070000C90.130000,14.480000,90.100000,14.710000,90.100000,14.760000C90.030000,15.400000,89.760000,16.260000,88.920000,18.490000C88.740000,18.960000,88.320000,20.570000,87.980000,22.080000C86.830000,27.190000,85.840000,29.590000,83.660000,32.400000C81.700000,34.930000,78.760000,37.180000,75.440000,38.640000C71.250000,40.500000,65.980000,41.910000,60.300000,42.680000C58.350000,42.940000,57.540000,42.980000,53.700000,42.980000C48.610000,42.960000,47.340000,42.850000,45.540000,42.190000C44.850000,41.940000,43.950000,41.710000,43.540000,41.670000C42.580000,41.590000,41.430000,41.830000,41.430000,42.110000C41.430000,42.280000,41.640000,42.360000,42.320000,42.470000C42.880000,42.560000,43.370000,42.730000,43.620000,42.910000C43.990000,43.190000,44.260000,43.240000,45.750000,43.330000C47.020000,43.410000,47.720000,43.520000,48.450000,43.770000C49.800000,44.220000,52.660000,45.710000,53.350000,46.310000C53.650000,46.570000,54.280000,47.060000,54.750000,47.400000C57.270000,49.220000,61.240000,56.060000,63.180000,61.950000C64.040000,64.550000,64.190000,65.610000,64.110000,68.570000C63.980000,72.950000,63.520000,74.980000,60.620000,83.650000C58.350000,90.500000,57.550000,92,54.330000,95.570000C53.820000,96.150000,53.680000,96.230000,52.750000,96.450000C52.040000,96.620000,51.550000,96.840000,51.100000,97.160000C50.070000,97.910000,50.160000,98.280000,51.260000,97.820000C51.520000,97.720000,51.940000,97.630000,52.200000,97.630000C52.460000,97.630000,52.950000,97.470000,53.350000,97.250000C53.720000,97.040000,54.450000,96.710000,54.940000,96.520000C55.450000,96.320000,56.120000,96.060000,56.440000,95.930000C57.280000,95.590000,59.960000,94.740000,61.600000,94.280000C61.970000,94.190000,62.870000,93.930000,63.630000,93.710000C64.830000,93.360000,65.140000,93.300000,66.110000,93.370000C68.630000,93.500000,71.660000,95.160000,73.660000,97.490000C74.630000,98.640000,77.060000,102.260000,78.280000,104.420000C79.440000,106.450000,80.920000,109.430000,81.160000,110.230000C81.520000,111.360000,81.820000,118.640000,81.650000,121.850000C81.560000,123.560000,81.110000,126.940000,80.960000,127.100000C80.930000,127.110000,80.710000,126.820000,80.460000,126.460000C80.210000,126.080000,79.940000,125.750000,79.860000,125.730000C79.620000,125.660000,79.640000,126.390000,79.880000,127.190000C79.990000,127.540000,80.080000,128.040000,80.080000,128.290000C80.080000,128.730000,80.070000,128.740000,79.830000,128.520000C79.690000,128.390000,79.530000,128.100000,79.490000,127.870000C79.320000,127.110000,78.640000,125.860000,78.150000,125.430000C77.480000,124.840000,77.470000,125.090000,78.060000,126.800000C78.570000,128.250000,78.580000,128.830000,78.120000,128.550000C77.990000,128.460000,77.850000,128.180000,77.790000,127.930000C77.650000,127.180000,77.220000,126.410000,76.580000,125.770000C75.990000,125.190000,75.970000,125.180000,75.930000,125.480000C75.900000,125.650000,76.020000,126.110000,76.180000,126.500000C76.700000,127.800000,76.820000,128.310000,76.670000,128.600000C76.540000,128.850000,76.530000,128.830000,76.310000,128.550000C76.180000,128.380000,76.010000,127.930000,75.910000,127.550000C75.840000,127.180000,75.650000,126.610000,75.500000,126.310000C75.220000,125.770000,74.370000,124.790000,74.180000,124.790000C74,124.790000,74.070000,125.410000,74.390000,126.440000C74.840000,127.950000,74.880000,128.160000,74.700000,128.440000C74.500000,128.740000,74.200000,128.800000,74.200000,128.510000C74.200000,127.960000,73.600000,126.780000,73.020000,126.200000C71.910000,125.090000,71.720000,125.470000,72.510000,127.270000C72.950000,128.290000,73.050000,128.900000,72.770000,128.900000C72.650000,128.900000,72.400000,128.550000,72.180000,128.080000C71.740000,127.150000,70.970000,126.290000,70.460000,126.170000C70.270000,126.120000,70.090000,126.110000,70.060000,126.140000C70.030000,126.180000,70.300000,126.860000,70.680000,127.660000C71.240000,128.830000,71.330000,129.130000,71.200000,129.290000C70.950000,129.590000,70.690000,129.530000,70.520000,129.120000C69.890000,127.580000,69.120000,126.480000,68.650000,126.480000C68.450000,126.480000,68.560000,126.930000,69.220000,128.550000C69.580000,129.460000,69.580000,129.530000,69.390000,129.960000C69.280000,130.210000,69.150000,130.400000,69.100000,130.400000C69.050000,130.400000,68.900000,130.090000,68.770000,129.710000C68.650000,129.340000,68.420000,128.820000,68.250000,128.560000C67.950000,128.090000,67.350000,127.530000,67.140000,127.530000C66.920000,127.530000,67.020000,128.060000,67.390000,128.940000C67.870000,130.070000,67.950000,130.430000,67.790000,130.660000C67.650000,130.880000,67.690000,130.920000,67,129.800000C66.670000,129.290000,65.860000,128.700000,65.450000,128.700000C65.230000,128.700000,65.430000,129.190000,66.060000,130.220000C66.600000,131.090000,66.760000,131.580000,66.530000,131.580000C66.460000,131.580000,66.230000,131.290000,65.990000,130.940000C65.720000,130.510000,65.390000,130.210000,65.020000,130.020000C64.010000,129.530000,63.890000,129.750000,64.610000,130.740000C64.850000,131.090000,65.180000,131.550000,65.320000,131.770000C65.340000,131.800000,65.430000,131.930000,65.590000,132.160000C65.410000,132.250000,65.310000,132.300000,65.290000,132.310000C65.020000,132.450000,64.960000,132.430000,64.630000,132.020000C64.420000,131.770000,64.020000,131.450000,63.730000,131.300000C63.700000,131.280000,63.520000,131.190000,63.200000,131.030000C63.250000,131.240000,63.280000,131.360000,63.290000,131.380000C63.340000,131.580000,63.520000,131.970000,63.710000,132.260000C64.150000,132.960000,63.910000,133.130000,63.200000,132.610000C62.700000,132.240000,62.060000,132.100000,62.060000,132.350000C62.060000,132.400000,62.200000,132.670000,62.390000,132.930000C62.410000,132.970000,62.520000,133.130000,62.710000,133.420000C62.520000,133.500000,62.420000,133.540000,62.400000,133.550000C62.160000,133.650000,62.010000,133.640000,61.690000,133.480000C61.120000,133.180000,61,133.210000,61.150000,133.610000C61.220000,133.800000,61.280000,133.990000,61.280000,134.040000C61.280000,134.210000,60.640000,134.450000,60.210000,134.450000C59.570000,134.450000,58.720000,134.920000,58.530000,135.380000C58.440000,135.590000,58.090000,135.950000,57.760000,136.170000C57.440000,136.390000,57.050000,136.680000,56.900000,136.810000C56.390000,137.270000,46.890000,142.470000,44.440000,143.620000C39.800000,145.820000,35.720000,147.150000,32.780000,147.460000C31.920000,147.550000,31.910000,147.530000,31.820000,147.190000C31.730000,146.830000,31.570000,146.750000,31.460000,147.010000C31.430000,147.100000,31.390000,147.060000,31.390000,146.910000C31.370000,146.650000,31.150000,146.330000,30.970000,146.330000C30.920000,146.330000,30.840000,146.460000,30.790000,146.620000C30.710000,146.890000,30.680000,146.870000,30.600000,146.460000C30.490000,145.930000,30.240000,145.420000,30.080000,145.420000C29.920000,145.420000,29.810000,145.760000,29.810000,146.180000C29.810000,146.450000,29.780000,146.490000,29.680000,146.330000C29.610000,146.230000,29.540000,145.950000,29.540000,145.740000C29.540000,145.340000,29.110000,144.500000,28.900000,144.500000C28.740000,144.500000,28.640000,144.990000,28.720000,145.500000C28.800000,145.990000,28.670000,146.060000,28.120000,145.770000C27.850000,145.640000,27.800000,145.510000,27.780000,145.010000C27.780000,144.670000,27.680000,144.260000,27.530000,144.050000C27.300000,143.690000,27.290000,143.680000,27.120000,143.920000C27.010000,144.050000,26.930000,144.320000,26.930000,144.520000C26.930000,145.330000,26.100000,145.560000,26.070000,144.770000C26.060000,144.520000,26.050000,144.200000,26.030000,144.090000C26.020000,143.770000,25.240000,142.920000,25.080000,143.020000C25,143.070000,24.990000,143.420000,25.040000,143.920000C25.090000,144.460000,25.080000,144.770000,24.970000,144.830000C24.740000,144.970000,24.450000,144.630000,24.450000,144.200000C24.450000,143.390000,23.450000,141.930000,23.120000,142.260000C23.050000,142.320000,23.120000,142.830000,23.280000,143.460000C23.430000,144.050000,23.530000,144.570000,23.490000,144.610000C23.370000,144.730000,23.020000,144.350000,23.020000,144.100000C23.020000,143.300000,21.720000,141.110000,21.250000,141.110000C20.980000,141.110000,21,141.270000,21.510000,142.730000C22,144.090000,22.080000,144.560000,21.810000,144.480000C21.640000,144.410000,21.640000,144.410000,21.070000,143.170000C20.700000,142.400000,19.910000,141.500000,19.610000,141.500000C19.460000,141.500000,19.730000,142.310000,20.200000,143.340000C20.440000,143.890000,20.600000,144.390000,20.560000,144.540000C20.500000,144.800000,20.480000,144.800000,20.310000,144.560000C20.210000,144.430000,19.960000,144.030000,19.750000,143.690000C19.370000,143.090000,18.390000,142.300000,18.220000,142.470000C18.130000,142.550000,18.370000,143.040000,19.030000,144.220000C19.250000,144.620000,19.320000,144.860000,19.240000,145.070000C19.180000,145.220000,19.090000,145.350000,19.020000,145.340000C18.950000,145.340000,18.670000,145.030000,18.380000,144.660000C17.830000,143.940000,17.520000,143.680000,17.050000,143.540000C16.580000,143.390000,16.670000,143.720000,17.340000,144.620000C17.660000,145.070000,17.920000,145.510000,17.920000,145.600000C17.920000,146.030000,17.610000,145.930000,16.940000,145.300000C16.470000,144.860000,16.130000,144.630000,15.910000,144.630000C15.730000,144.630000,15.570000,144.660000,15.570000,144.690000C15.570000,144.710000,15.830000,145.080000,16.160000,145.500000C16.490000,145.900000,16.750000,146.280000,16.750000,146.330000C16.750000,146.370000,16.660000,146.540000,16.540000,146.700000C16.400000,146.920000,16.210000,146.990000,15.790000,146.990000C15.760000,146.990000,15.580000,146.990000,15.250000,147C15.630000,147.350000,15.840000,147.550000,15.890000,147.590000C16.240000,147.900000,16.500000,148.190000,16.470000,148.210000C16.450000,148.240000,16.230000,148.360000,16,148.470000C15.770000,148.590000,15.570000,148.750000,15.570000,148.810000C15.570000,149,16.240000,148.970000,16.830000,148.760000C17.270000,148.620000,17.920000,148.670000,17.920000,148.850000C17.920000,148.880000,17.620000,149.100000,17.240000,149.320000C16.720000,149.650000,16.600000,149.780000,16.760000,149.870000C17.010000,150.030000,17.610000,149.900000,18.300000,149.520000C19.520000,148.850000,19.740000,149.320000,18.680000,150.280000C18.630000,150.320000,18.400000,150.520000,17.990000,150.890000C18.250000,150.900000,18.400000,150.900000,18.430000,150.900000C18.940000,150.900000,20,150.450000,20.100000,150.170000C20.180000,149.950000,20.670000,149.920000,20.670000,150.130000C20.670000,150.210000,20.400000,150.580000,20.080000,150.930000C19.450000,151.620000,19.370000,151.820000,19.690000,151.820000C20.140000,151.820000,20.890000,151.390000,21.340000,150.880000C21.710000,150.460000,21.870000,150.350000,21.980000,150.470000C22.100000,150.590000,22.010000,150.810000,21.620000,151.390000C20.860000,152.510000,20.870000,152.470000,21.230000,152.470000C21.680000,152.470000,22.610000,151.800000,22.920000,151.230000C23.080000,150.950000,23.290000,150.710000,23.380000,150.670000C23.590000,150.600000,23.580000,150.970000,23.360000,151.330000C23.250000,151.490000,23.130000,151.750000,23.080000,151.910000C22.870000,152.610000,24.190000,151.990000,24.500000,151.230000C24.610000,150.980000,24.770000,150.770000,24.830000,150.770000C25.050000,150.770000,25.240000,151.220000,25.090000,151.440000C24.900000,151.750000,24.960000,152.080000,25.220000,152.080000C25.610000,152.080000,26.160000,151.570000,26.120000,151.240000C26.100000,151.020000,26.150000,150.970000,26.410000,150.970000C26.690000,150.970000,26.760000,151.060000,26.910000,151.520000C27.170000,152.310000,27.640000,152.220000,27.740000,151.360000C27.780000,151.020000,27.850000,150.970000,28.200000,150.930000C28.620000,150.890000,28.630000,150.900000,28.630000,151.350000C28.630000,151.590000,28.700000,151.840000,28.790000,151.900000C28.960000,152,29.540000,151.390000,29.560000,151.060000C29.570000,150.930000,29.610000,150.970000,29.660000,151.160000C29.780000,151.580000,30.200000,151.590000,30.390000,151.200000C30.540000,150.930000,30.560000,150.930000,30.760000,151.120000C30.960000,151.320000,30.980000,151.320000,31.060000,151.110000C31.110000,150.970000,31.230000,150.920000,31.390000,150.970000C31.540000,151.020000,31.630000,150.990000,31.630000,150.880000C31.630000,150.750000,32.100000,150.650000,33.570000,150.540000C40.370000,150,49.380000,147.180000,58.930000,142.610000C60.470000,141.880000,62.400000,141.030000,63.200000,140.730000C65.910000,139.740000,69.460000,138.930000,72.450000,138.630000C73.720000,138.500000,73.960000,138.510000,75.080000,138.770000C76.200000,139.030000,76.420000,139.050000,77.320000,138.900000C78.740000,138.690000,79.070000,138.720000,79.960000,139.080000C81.480000,139.720000,82.860000,139.970000,84.450000,139.880000C85.250000,139.840000,86.200000,139.760000,86.580000,139.710000C86.630000,139.710000,86.870000,139.680000,87.290000,139.630000C87.050000,140.100000,86.920000,140.350000,86.900000,140.400000C86.690000,140.820000,86.300000,141.710000,86.030000,142.360000C85.470000,143.720000,84.900000,144.500000,84.480000,144.500000C84.320000,144.500000,83.930000,144.320000,83.610000,144.110000C82.860000,143.620000,81.760000,143.200000,81.220000,143.200000C80.640000,143.200000,79.650000,143.490000,78.740000,143.920000C77.830000,144.330000,76.570000,144.490000,76.100000,144.240000C75.910000,144.150000,75.630000,143.850000,75.430000,143.580000C74.840000,142.730000,74.650000,142.750000,73.130000,143.900000C72.060000,144.730000,69.270000,146.200000,68.760000,146.230000C68.560000,146.230000,67.860000,146.190000,67.220000,146.140000C66.230000,146.060000,65.960000,146.070000,65.610000,146.250000C65.360000,146.380000,65.190000,146.410000,65.190000,146.330000C65.190000,146.250000,65.140000,146.230000,65.060000,146.270000C64.910000,146.370000,64.890000,146.310000,65.060000,145.890000C65.140000,145.670000,65.140000,145.550000,65.060000,145.550000C64.880000,145.550000,64.160000,147.100000,64.290000,147.190000C64.360000,147.230000,64.410000,147.590000,64.410000,147.980000C64.410000,148.380000,64.480000,148.810000,64.540000,148.940000C64.750000,149.340000,65.720000,149.940000,66.400000,150.090000C67.530000,150.380000,67.790000,150.320000,68.520000,149.610000C69.490000,148.640000,71.340000,147.830000,73.630000,147.360000C74.580000,147.170000,75.350000,147.300000,79.880000,148.340000C84.830000,149.510000,86.640000,149.790000,87.800000,149.600000C88.740000,149.440000,90.120000,148.940000,91.480000,148.260000C92.890000,147.570000,96.380000,145.940000,96.470000,145.940000C96.510000,145.940000,96.530000,146.020000,96.530000,146.120000C96.530000,146.380000,97.040000,146.720000,97.410000,146.720000C97.750000,146.720000,97.770000,146.830000,97.550000,147.310000C97.450000,147.560000,97.450000,147.720000,97.570000,147.980000C97.700000,148.280000,97.680000,148.320000,97.510000,148.250000C97.410000,148.200000,97.320000,148.230000,97.320000,148.300000C97.320000,148.380000,97.590000,148.550000,97.920000,148.710000C98.400000,148.920000,98.730000,148.960000,99.520000,148.920000C101.030000,148.840000,101.500000,148.550000,102.970000,146.820000C103.320000,146.410000,103.650000,146.070000,103.700000,146.070000C103.890000,146.070000,104.730000,147.990000,105.280000,149.640000C105.320000,149.750000,105.500000,150.300000,105.830000,151.310000C105.380000,152.400000,105.140000,153,105.090000,153.120000C104.110000,155.500000,104.130000,155.470000,103.250000,155.470000C102.850000,155.470000,102.280000,155.420000,101.980000,155.340000C101.680000,155.280000,100.970000,155.190000,100.420000,155.150000C99.420000,155.060000,99.410000,155.060000,99.600000,154.780000C99.970000,154.270000,99.800000,154.250000,99.300000,154.730000C99.030000,154.990000,98.680000,155.210000,98.530000,155.210000C98.140000,155.210000,98.040000,155.430000,98.350000,155.590000C98.600000,155.730000,98.600000,155.730000,98.350000,156.390000C98.020000,157.250000,98.040000,157.500000,98.430000,158.160000C98.730000,158.690000,98.840000,158.760000,99.690000,159.010000C99.760000,159.030000,100.060000,159.130000,100.620000,159.300000C101.210000,159.010000,101.530000,158.850000,101.600000,158.820000C102.140000,158.550000,103.190000,158.100000,103.950000,157.810000C105.520000,157.220000,105.640000,157.140000,106.350000,156.090000C106.640000,155.670000,106.900000,155.360000,106.950000,155.390000C106.990000,155.430000,106.930000,155.580000,106.820000,155.690000C106.710000,155.830000,106.420000,156.280000,106.180000,156.710000C105.770000,157.470000,103.750000,159.760000,101.760000,161.740000C100.990000,162.510000,100.650000,162.760000,100.180000,162.880000C99.580000,163.030000,98.750000,163.660000,98.750000,163.960000C98.750000,164.080000,98.900000,164.100000,99.250000,164.040000C99.510000,164,99.850000,163.960000,99.990000,163.960000C100.140000,163.960000,100.580000,163.730000,100.970000,163.430000C102.080000,162.590000,102.530000,162.420000,104.460000,162.050000C105.450000,161.870000,106.720000,161.570000,107.280000,161.400000C109.370000,160.750000,112.560000,160.700000,117.360000,161.230000C124.150000,161.990000,128.320000,163.280000,132.250000,165.840000C133.530000,166.680000,135.560000,168.360000,136.010000,168.950000C137.030000,170.310000,137.580000,172.630000,137.350000,174.720000C137.280000,175.440000,137.180000,175.670000,136.810000,176.130000C136.060000,177.010000,135.640000,178.060000,136.020000,178.060000C136.240000,178.060000,137.080000,177.080000,137.260000,176.610000C137.480000,176.010000,139.390000,173.600000,140.720000,172.210000C144.050000,168.750000,147.770000,166.600000,151.940000,165.700000C153.610000,165.330000,157.690000,165.370000,159.340000,165.780000C163.250000,166.690000,165.960000,168.020000,169.990000,171C170.990000,171.740000,172.210000,172.540000,172.690000,172.790000C173.830000,173.360000,173.970000,173.580000,173.970000,174.770000C173.970000,175.500000,174.010000,175.740000,174.160000,175.800000C174.280000,175.840000,174.400000,175.840000,174.440000,175.800000C174.560000,175.700000,174.730000,174,174.880000,171.500000C174.960000,170.270000,175.170000,168.540000,175.350000,167.550000C175.380000,167.440000,175.490000,166.850000,175.690000,165.800000C174.390000,163.210000,173.670000,161.770000,173.520000,161.480000C172.340000,159.120000,171.300000,156.920000,171.210000,156.610000C171.040000,155.930000,170.800000,155.660000,169.460000,154.650000C168.890000,154.210000,167.390000,152.990000,166.130000,151.960000C158.350000,145.520000,156.270000,144.070000,148.050000,139.330000C146.130000,138.240000,145.400000,137.740000,144.820000,137.140000C144.770000,137.090000,144.530000,136.830000,144.080000,136.370000C143.660000,136.420000,143.430000,136.450000,143.390000,136.460000C141.170000,136.730000,140.720000,136.710000,135.840000,136.020000C133.210000,135.650000,131.050000,135.320000,131.020000,135.300000C130.990000,135.270000,131.410000,135.050000,131.930000,134.810000C133.620000,134.070000,135.850000,132.930000,137.370000,132.060000C140.490000,130.270000,144.180000,129.510000,146.690000,130.150000C147.210000,130.280000,147.330000,130.450000,147.330000,131.120000C147.330000,131.370000,147.380000,131.590000,147.430000,131.630000C147.540000,131.690000,148.660000,130.980000,149.850000,130.090000C150.140000,129.880000,150.250000,129.850000,150.450000,129.970000C150.650000,130.090000,150.780000,130.050000,151.160000,129.740000C151.740000,129.250000,152.440000,128.940000,153.920000,128.510000C155.540000,128.040000,157.380000,127.780000,157.930000,127.930000C158.550000,128.100000,158.560000,128.100000,158.560000,127.580000C158.560000,127.070000,158.700000,126.730000,159.160000,126.180000C159.450000,125.840000,159.460000,125.780000,159.290000,125.450000C159.040000,125,158.090000,124.040000,157.620000,123.790000C157.420000,123.690000,156.900000,123.580000,156.460000,123.550000C156.030000,123.510000,155.450000,123.430000,155.190000,123.360000C154.920000,123.280000,154.500000,123.190000,154.240000,123.150000C153.860000,123.100000,153.730000,123,153.600000,122.680000C153.470000,122.380000,153.190000,122.170000,152.500000,121.820000C151.990000,121.560000,151.330000,121.180000,151.030000,120.990000C150.410000,120.560000,150.200000,120.520000,150.200000,120.800000C150.200000,121.050000,149.680000,121.260000,149.050000,121.260000C148.700000,121.260000,148.480000,121.160000,148.150000,120.840000C147.920000,120.610000,147.720000,120.490000,147.720000,120.570000C147.720000,120.650000,147.580000,120.670000,147.380000,120.630000C147.070000,120.580000,147.060000,120.590000,147.190000,120.860000C147.370000,121.200000,147.240000,121.210000,146.810000,120.870000C146.420000,120.560000,146.290000,120.540000,146.290000,120.800000C146.290000,121.030000,145.980000,120.950000,145.500000,120.580000C145.310000,120.420000,145.160000,120.390000,145.140000,120.460000C145.060000,120.710000,144.420000,120.620000,144.100000,120.320000C144.080000,120.300000,143.980000,120.210000,143.800000,120.050000C143.800000,120.210000,143.800000,120.300000,143.800000,120.320000C143.800000,120.660000,143.360000,120.710000,142.970000,120.410000C142.620000,120.150000,142.510000,120.160000,142.590000,120.480000C142.690000,120.880000,142.370000,120.790000,141.820000,120.260000C141.550000,119.990000,141.300000,119.810000,141.240000,119.850000C141.150000,119.950000,141.440000,120.800000,141.740000,121.330000C142.030000,121.810000,142.080000,122.870000,141.810000,122.570000C141.700000,122.460000,141.520000,122.100000,141.400000,121.760000C141.010000,120.670000,139.890000,119.410000,139.890000,120.050000C139.890000,120.180000,140.020000,120.540000,140.160000,120.870000C140.590000,121.800000,140.800000,122.450000,140.720000,122.590000C140.630000,122.740000,140.150000,122.330000,140.150000,122.110000C140.150000,121.770000,139.090000,120.330000,138.580000,120.010000C138.290000,119.810000,138.020000,119.680000,137.980000,119.720000C137.950000,119.760000,138.250000,120.440000,138.670000,121.230000C139.230000,122.330000,139.390000,122.720000,139.270000,122.840000C139.050000,123.060000,138.880000,122.890000,138.460000,122.070000C138.020000,121.200000,137.480000,120.590000,136.910000,120.290000C136.320000,119.990000,136.360000,120.190000,137.200000,121.680000C137.680000,122.510000,137.890000,123.020000,137.840000,123.210000C137.800000,123.360000,137.750000,123.480000,137.720000,123.480000C137.550000,123.480000,137.110000,122.880000,136.920000,122.400000C136.810000,122.100000,136.580000,121.640000,136.430000,121.390000C136.110000,120.890000,135.130000,119.950000,134.920000,119.950000C134.720000,119.950000,134.910000,120.580000,135.540000,121.820000C136,122.720000,136.100000,123.050000,136.030000,123.350000C135.980000,123.570000,135.900000,123.740000,135.840000,123.740000C135.770000,123.740000,135.560000,123.430000,135.380000,123.050000C134.850000,122,133.910000,121.130000,133.290000,121.130000C133.070000,121.130000,133.270000,121.560000,134.340000,123.390000C134.590000,123.830000,134.650000,124.070000,134.560000,124.160000C134.360000,124.360000,134.210000,124.210000,133.670000,123.400000C133.110000,122.570000,132.530000,122.080000,131.930000,121.970000C131.910000,121.960000,131.760000,121.930000,131.500000,121.870000C131.640000,122.140000,131.720000,122.290000,131.740000,122.320000C131.860000,122.570000,132.250000,123.140000,132.600000,123.600000C133.060000,124.210000,133.230000,124.550000,133.230000,124.860000C133.230000,125.160000,133.160000,125.310000,133.030000,125.310000C132.840000,125.310000,132.770000,125.220000,131.880000,123.870000C131.580000,123.420000,131.140000,122.920000,130.900000,122.790000C130.120000,122.330000,130.170000,122.680000,131.140000,124.200000C131.660000,125.020000,131.790000,125.330000,131.760000,125.690000C131.710000,126.330000,131.460000,126.330000,131.140000,125.700000C130.790000,125.020000,130.030000,124.170000,129.530000,123.910000C129.510000,123.900000,129.370000,123.830000,129.140000,123.720000C129.190000,123.940000,129.230000,124.070000,129.230000,124.090000C129.280000,124.290000,129.580000,124.860000,129.910000,125.360000C130.420000,126.170000,130.670000,127.020000,130.390000,127.010000C130.330000,126.990000,130.090000,126.730000,129.860000,126.420000C129.390000,125.770000,129.020000,125.490000,128.410000,125.310000C127.830000,125.150000,127.870000,125.390000,128.570000,126.220000C129.390000,127.240000,129.640000,127.660000,129.410000,127.660000C129.310000,127.660000,129.060000,127.480000,128.840000,127.250000C128.630000,127.030000,128.300000,126.770000,128.110000,126.670000C127.720000,126.460000,127.090000,126.420000,127.090000,126.600000C127.090000,126.670000,127.360000,127.020000,127.690000,127.380000C127.730000,127.430000,127.930000,127.650000,128.290000,128.050000C127.940000,128.050000,127.740000,128.050000,127.700000,128.050000C127.120000,128.050000,127.120000,128.050000,127.020000,127.520000C126.970000,127.190000,126.780000,126.810000,126.540000,126.560000C126.520000,126.540000,126.390000,126.400000,126.160000,126.160000C126.220000,126.740000,126.250000,127.060000,126.250000,127.120000C126.320000,127.910000,126.310000,128.080000,126.160000,128.020000C126.060000,127.990000,125.940000,127.690000,125.900000,127.290000C125.810000,126.630000,125.440000,125.860000,125.290000,126.030000C125.250000,126.070000,125.220000,126.480000,125.240000,126.950000C125.260000,127.710000,125.250000,127.800000,125.040000,127.760000C124.860000,127.720000,124.790000,127.540000,124.710000,126.840000C124.620000,125.920000,124.320000,125.230000,124.070000,125.390000C123.980000,125.440000,123.940000,125.860000,123.980000,126.470000C124.020000,127.410000,124.010000,127.460000,123.730000,127.500000C123.390000,127.550000,123.410000,127.610000,123.370000,126.410000C123.330000,125.470000,123,124.510000,122.780000,124.730000C122.720000,124.800000,122.650000,125.320000,122.620000,125.900000C122.600000,126.510000,122.530000,126.930000,122.450000,126.900000C122.390000,126.890000,122.260000,126.440000,122.180000,125.910000C122.040000,124.980000,121.710000,124.260000,121.450000,124.260000C121.370000,124.260000,121.340000,124.680000,121.400000,125.400000C121.450000,126.040000,121.440000,126.630000,121.370000,126.720000C121.190000,126.980000,121.070000,126.580000,121,125.520000C120.950000,124.530000,120.530000,123.480000,120.210000,123.480000C120.040000,123.480000,120.030000,123.660000,120.100000,124.770000C120.180000,125.840000,120.160000,126.130000,120,126.370000C119.990000,126.390000,119.920000,126.480000,119.790000,126.650000C119.750000,126.470000,119.730000,126.360000,119.720000,126.340000C119.690000,126.170000,119.630000,125.630000,119.610000,125.140000C119.570000,124.540000,119.440000,124.030000,119.190000,123.550000C118.670000,122.470000,118.090000,117.960000,118.290000,116.400000C118.810000,112.070000,122.480000,103.880000,125.270000,100.840000C126.180000,99.850000,127.510000,98.930000,128.040000,98.930000C128.280000,98.930000,128.550000,98.870000,128.660000,98.800000C128.810000,98.700000,128.800000,98.640000,128.550000,98.380000C128.300000,98.110000,128.290000,98.020000,128.410000,97.560000C128.600000,96.850000,128.470000,95.940000,128,94.650000C127.700000,93.830000,127.570000,93.190000,127.480000,91.970000C127.320000,90.210000,127.290000,89.960000,126.570000,86.130000C126.290000,84.660000,125.850000,81.980000,125.590000,80.190000C124.310000,71.420000,122.780000,64.720000,119.760000,54.660000C118.070000,49.020000,117.750000,47.820000,117.540000,46.190000C117.370000,44.870000,117.400000,44.920000,115.810000,42.720000C114.950000,41.540000,113.480000,39.060000,111.680000,35.790000C110.050000,32.820000,104.980000,24.360000,104.670000,24.070000C104.530000,23.950000,104.340000,23.850000,104.260000,23.850000C104.170000,23.850000,103.390000,23.210000,102.500000,22.440000C98.340000,18.770000,96.470000,17.210000,93.190000,14.710000C92.760000,14.390000,91.900000,13.630000,91.240000,13.020000C89.650000,11.530000,87.540000,10.500000,87.200000,11.050000C87.090000,11.220000,87.350000,11.570000,87.590000,11.570000ZM143.280000,122.320000C143.280000,122.620000,143.280000,122.620000,143.050000,122.360000C142.720000,122.020000,142.600000,121.520000,142.840000,121.520000C142.930000,121.520000,143.070000,121.640000,143.150000,121.770000C143.220000,121.910000,143.280000,122.160000,143.280000,122.320000ZM144.210000,122.170000C144.140000,122.170000,144.040000,122.110000,144,122.040000C143.960000,121.970000,143.970000,121.910000,144.050000,121.910000C144.120000,121.910000,144.220000,121.970000,144.260000,122.040000C144.300000,122.110000,144.290000,122.170000,144.210000,122.170000ZM98.350000,145.350000C97.640000,145.470000,97.580000,145.370000,98.190000,145.040000C98.820000,144.710000,98.880000,144.710000,98.880000,145.010000C98.880000,145.210000,98.750000,145.290000,98.350000,145.350000ZM99.290000,147.040000C98.900000,147.270000,98.860000,147.270000,98.620000,147.050000C98.300000,146.760000,98.300000,146.630000,98.600000,146.550000C98.980000,146.450000,99.730000,146.520000,99.720000,146.660000C99.720000,146.720000,99.520000,146.890000,99.290000,147.040000ZM65.690000,148.420000C65.620000,148.420000,65.590000,148.280000,65.590000,148.110000C65.590000,147.940000,65.550000,147.690000,65.490000,147.560000C65.440000,147.400000,65.470000,147.360000,65.600000,147.400000C65.700000,147.440000,65.780000,147.650000,65.780000,147.940000C65.780000,148.200000,65.740000,148.420000,65.690000,148.420000ZM66.890000,147.770000C66.790000,147.930000,66.760000,147.910000,66.760000,147.660000C66.760000,147.510000,66.830000,147.380000,66.890000,147.380000C66.970000,147.380000,67.020000,147.420000,67.020000,147.470000C67.020000,147.530000,66.960000,147.660000,66.890000,147.770000ZM100.840000,156.750000C100.440000,157.170000,100.150000,157.120000,99.980000,156.580000C99.820000,156.070000,99.880000,156.050000,100.700000,156.200000C101.170000,156.310000,101.200000,156.370000,100.840000,156.750000Z"/><path id="e55xlu9jycn7" d="M657.670000,132.370000C662.310000,123.480000,671.610000,117.390000,682.320000,117.390000C689.640000,117.390000,696.550000,120.210000,701.770000,125.340000C701.900000,125.470000,702.030000,125.610000,702.160000,125.740000C703.170000,123.910000,703.740000,121.810000,703.740000,119.570000C703.740000,112.500000,698.010000,106.770000,690.940000,106.770000C687.810000,106.770000,684.940000,107.900000,682.710000,109.770000C682.480000,97.730000,672.650000,88.050000,660.560000,88.050000C648.320000,88.050000,638.400000,97.970000,638.400000,110.210000C638.400000,112.470000,638.740000,114.660000,639.370000,116.710000C635.130000,116.810000,631.720000,120.270000,631.720000,124.540000C631.720000,128.860000,635.220000,132.370000,639.550000,132.370000C643.170000,132.370000,655.860000,132.370000,657.670000,132.370000Z"/><path id="e55xlu9jycn8" d="M707.470000,144.660000C707.350000,138.190000,704.770000,132.310000,700.640000,127.920000C696.050000,123.040000,689.540000,120,682.320000,120C673.090000,120,665.030000,124.970000,660.650000,132.370000C658.430000,136.120000,657.150000,140.490000,657.150000,145.170000C657.150000,147.740000,657.540000,150.220000,658.250000,152.550000C653.430000,152.660000,649.560000,156.590000,649.560000,161.440000C649.560000,166.350000,653.540000,170.330000,658.450000,170.330000C660.040000,170.330000,668,170.330000,682.320000,170.330000L683.400000,170.330000C703.450000,170.330000,714.590000,170.330000,716.820000,170.330000C724.850000,170.330000,731.360000,163.830000,731.360000,155.800000C731.350000,147.770000,724.850000,141.260000,716.820000,141.260000C713.260000,141.260000,710,142.540000,707.470000,144.660000Z"/><path id="e55xlu9jycn9" d="M416.220000,56.780000C416.090000,50.300000,413.520000,44.430000,409.380000,40.030000C404.790000,35.160000,398.290000,32.110000,391.060000,32.110000C381.830000,32.110000,373.770000,37.080000,369.390000,44.490000C367.170000,48.240000,365.890000,52.610000,365.890000,57.280000C365.890000,59.850000,366.280000,62.330000,367,64.670000C362.180000,64.770000,358.300000,68.710000,358.300000,73.550000C358.300000,78.470000,362.280000,82.450000,367.190000,82.450000C368.790000,82.450000,376.740000,82.450000,391.060000,82.450000L392.150000,82.450000C412.200000,82.450000,423.330000,82.450000,425.560000,82.450000C433.590000,82.450000,440.100000,75.940000,440.100000,67.910000C440.100000,59.880000,433.590000,53.370000,425.560000,53.370000C422,53.370000,418.740000,54.650000,416.220000,56.780000Z"/></defs><g id="e55xlu9jycn10"><g id="e55xlu9jycn11"><g id="e55xlu9jycn12"><g id="e55xlu9jycn13_to" transform="translate(0,22.399994)"><use id="e55xlu9jycn13" width="1224.949951" height="575.250000" xlink:href="#e55xlu9jycn3" transform="translate(0,0)" fill="rgb(0,0,0)" stroke="none" stroke-width="1"/></g><g id="e55xlu9jycn14"><g id="e55xlu9jycn15_to" transform="translate(-1.097393,26.366140)"><use id="e55xlu9jycn15" width="30.424805" height="7.187408" xlink:href="#e55xlu9jycn4" transform="translate(0,0)" fill="rgb(0,0,0)" stroke="none" stroke-width="1"/></g></g></g><g id="e55xlu9jycn16"><g id="e55xlu9jycn17"/></g><g id="e55xlu9jycn18"><g id="e55xlu9jycn19_to" transform="translate(-12.879070,176.767992)"><use id="e55xlu9jycn19" width="160.440002" height="167.160126" xlink:href="#e55xlu9jycn6" transform="rotate(0.762501) translate(0,0)" fill="rgb(0,0,0)" stroke="none" stroke-width="1"/></g></g><g id="e55xlu9jycn20"/><g id="e55xlu9jycn21"><g id="e55xlu9jycn22_to" transform="translate(0,0)"><use id="e55xlu9jycn22" width="81.799988" height="50.330002" xlink:href="#e55xlu9jycn8" transform="translate(0,0)" fill="rgb(0,0,0)" stroke="none" stroke-width="1"/></g><g id="e55xlu9jycn23_to" transform="translate(0,0)"><use id="e55xlu9jycn23" width="72.020020" height="44.319992" xlink:href="#e55xlu9jycn7" transform="translate(0,0)" fill="rgb(0,0,0)" stroke="none" stroke-width="1"/></g><g id="e55xlu9jycn24_to" transform="translate(0,0)"><use id="e55xlu9jycn24" width="81.800018" height="50.339996" xlink:href="#e55xlu9jycn9" transform="translate(0,0)" fill="rgb(0,0,0)" stroke="none" stroke-width="1"/></g></g><g id="e55xlu9jycn25"/></g></g></svg>