<?xml version="1.0" encoding="UTF-8" standalone="no"?>
<svg
   xmlns:dc="http://purl.org/dc/elements/1.1/"
   xmlns:cc="http://creativecommons.org/ns#"
   xmlns:rdf="http://www.w3.org/1999/02/22-rdf-syntax-ns#"
   xmlns:svg="http://www.w3.org/2000/svg"
   xmlns="http://www.w3.org/2000/svg"
   xmlns:sodipodi="http://sodipodi.sourceforge.net/DTD/sodipodi-0.dtd"
   xmlns:inkscape="http://www.inkscape.org/namespaces/inkscape"
   id="Layer_2"
   data-name="Layer 2"
   viewBox="0 0 224.02 429.73"
   version="1.1"
   sodipodi:docname="hanging-banner-dragon.svg"
   inkscape:version="1.0.2 (e86c870879, 2021-01-15, custom)">
  <metadata
     id="metadata46">
    <rdf:RDF>
      <cc:Work
         rdf:about="">
        <dc:format>image/svg+xml</dc:format>
        <dc:type
           rdf:resource="http://purl.org/dc/dcmitype/StillImage" />
        <dc:title></dc:title>
      </cc:Work>
    </rdf:RDF>
  </metadata>
  <sodipodi:namedview
     pagecolor="#ffffff"
     bordercolor="#666666"
     borderopacity="1"
     objecttolerance="10"
     gridtolerance="10"
     guidetolerance="10"
     inkscape:pageopacity="0"
     inkscape:pageshadow="2"
     inkscape:window-width="1920"
     inkscape:window-height="1017"
     id="namedview44"
     showgrid="false"
     inkscape:zoom="1.3608017"
     inkscape:cx="-195.10839"
     inkscape:cy="138.39727"
     inkscape:window-x="1272"
     inkscape:window-y="-8"
     inkscape:window-maximized="1"
     inkscape:current-layer="Layer_2" />
  <defs
     id="defs31">
    <style
       id="style29">.cls-1{fill:#8b002f;}.cls-2{fill:none;stroke:#000;stroke-width:4px;}</style>
  </defs>
  <path
     class="cls-1"
     d="M256,430.7c-62.42-35.48-95.6-89.91-104.35-160.18H339Q342.88,332.35,256,430.7Z"
     id="path33"
     transform="translate(-137.24 -0.96)" />
  <path
     d="M351.48,22.7H151.65c-1.71,82.17-1.08,164.94,0,247.82H339c8-78.52,12.39-160.22,12.52-245.74"
     transform="translate(-137.24 -0.96)"
     id="path35" />
  <polygon
     class="cls-2"
     points="219.98 22.73 7.63 22.73 114.33 2.04 216.85 22.73 219.98 22.73"
     id="polygon37" />
  <circle
     cx="4.04"
     cy="23.23"
     r="4.04"
     id="circle39" />
  <circle
     cx="219.98"
     cy="22.73"
     r="4.04"
     id="circle41" />
  <g
     id="g372"
     transform="matrix(0.89807086,0,0,0.86935089,9.3890863,20.347745)">
    <g
       id="dragon-g1"
       style="fill:#ffffff;shape-rendering:geometricPrecision;text-rendering:geometricPrecision"
       transform="matrix(0.20827439,0,0,0.13081402,42.354205,15.648811)">
      <g
         id="dragon-g2"
         style="fill:#ffffff">
        <path
           id="dragon-path1"
           d="M 433.5,306.6 C 364.2,181 326.7,129.8 178.6,82 313.9,139.3 343.5,185.6 399.1,296.4 Z"
           transform="translate(-9.3084351)"
           fill="#050505"
           stroke="none"
           stroke-width="1"
           style="fill:#ffffff" />
      </g>
    </g>
    <g
       id="dragon-g3"
       style="fill:#ffffff;shape-rendering:geometricPrecision;text-rendering:geometricPrecision"
       transform="matrix(0.20827439,0,0,0.13081402,42.354205,15.648811)">
      <g
         id="dragon-g4"
         style="fill:#ffffff">
        <g
           id="dragon-g5"
           style="fill:#ffffff">
          <path
             id="dragon-path2"
             d="M 389.2,405.5 377.4,434 C 320.2,388.4 267.6,386.8 185.9,422.6 256,368.5 308.8,357.2 389.2,405.5 Z"
             fill="#0b0909"
             stroke="none"
             stroke-width="1"
             style="fill:#ffffff" />
          <path
             id="dragon-path3"
             d="m 372.9,451.1 -20.7,26.6 c -8.8,-29.6 -85.7,-16.4 -167.8,0 69.6,-33.3 136.3,-56.4 188.5,-26.6 z"
             fill="#0e0e0e"
             stroke="none"
             stroke-width="1"
             style="fill:#ffffff" />
          <path
             id="dragon-path4"
             d="m 429.6,492.1 c -9.3,35.6 -8.6,63.2 0.6,86.9 28.5,36.9 46.5,88.5 62.6,143.3 7.3,67.6 -22,119 -60.9,166.3 34.1,-66 55.7,-122.2 44.3,-155.5 -6.4,-50.9 -11.5,-64.4 -60.9,-148.8 -11,-14.5 -2.4,-66.1 14.3,-92.2 z"
             fill="#191818"
             stroke="none"
             stroke-width="1"
             style="fill:#ffffff" />
          <path
             id="dragon-path5"
             d="M 248,1122.4 C 161.4,980.2 108.6,832.8 92.7,683.2 c -21.4,-104.6 17.2,-232.1 96.9,-290 77,-60.2 150.1,-55.7 215.1,10.5 -2.7,52 -29.7,91.3 -67.3,121.6 5.8,77 63.4,163.5 119,240.6 -30,-64.1 -54.8,-126 -59.9,-179.7 1,-84 35.4,-91.1 79.8,-62.8 l 28.1,44.7 42.9,13.3 46.6,98.9 59.1,4.8 -74.7,-147.3 -2.2,-72.3 c -22.2,-24.4 -37.9,-48.6 -57.7,-70.4 1.3,-45.4 -8.2,-91.1 -23.7,-136.9 -1,35.9 -1.2,72 -20,108.4 C 415.5,333.2 357,318 296.6,318.1 256.4,324.2 219,337.4 185.7,360.9 138.5,402.2 96.4,447.5 80.7,507.3 69,536.8 67.3,570.7 65.9,613.8 c -0.9,53.2 7.3,145.5 52,278.6 25.4,92.1 74.1,172.4 130.1,230 z M 477.9,454.9 c -5.4,-16.6 -10.6,-29 -4.4,-37.1 0,0 11.8,0.9 12.6,-7.6 0.7,-8.6 35.2,57.7 43.6,90.3 -27.4,-14.2 -38.5,-20.8 -51.8,-45.6 z m -17.7,260.6 c 4.7,17 5.6,31.7 -7.4,38 L 441,729.7 c 11.2,3.3 16.7,-3.1 19.2,-14.2 z m -52.5,-80.8 c 13.3,9.4 14.7,-10.4 14.8,-23.8 5.8,17.6 5.9,42.6 -7.4,54.2 z m 96.8,-66.6 c -4.9,15.6 -16.5,16.2 -34,3.8 16.2,0 24.4,-6.6 22.2,-21.9 z m 54.7,46.6 c -3.7,13.5 -14,9.9 -24.4,5.7 13.2,-3.1 16.3,-15.4 15.5,-31.4 z m 29.6,64.6 c -6.4,13.4 -23,2.1 -40.7,-7.6 22.8,0.6 36.9,-0.3 26.6,-30.4 z"
             fill="#000000"
             stroke="none"
             stroke-width="1"
             style="fill:#ffffff" />
          <path
             id="dragon-path6"
             d="m 285.7,1188.1 c 58.6,121.8 95.8,245.1 84.3,371.8 -2.2,194.9 -77.7,266.9 -148.6,328 76.5,-112.5 128.9,-231.1 120.5,-330.9 14.5,-118.7 -12.6,-242.7 -56.2,-368.9 z"
             fill="#0e0d0d"
             stroke="none"
             stroke-width="1"
             style="fill:#ffffff" />
        </g>
      </g>
    </g>
    <g
       id="dragon-g6"
       style="shape-rendering:geometricPrecision;text-rendering:geometricPrecision"
       transform="matrix(0.20827439,0,0,0.13081402,42.354205,15.648811)">
      <path
         id="dragon-path7"
         d="m 464.2,606.6 c 152.8,96.7 33.6,167.2 104.5,313.8 l 0.5,0.3 C 445.1,831.6 583.2,692.1 464.9,607.3"
         fill="#89272d"
         stroke="none"
         stroke-width="1" />
      <path
         id="dragon-path8"
         d="m 625.5,879.1 c 31.4,-86.3 -48.4,-99 -68.6,-175.7 -11.4,102 70.4,99.9 68.2,175.8"
         fill="#89272d"
         stroke="none"
         stroke-width="1" />
      <path
         id="dragon-path9"
         d="m 555.5,815.9 c 110.3,78.1 5.3,104.3 98.2,256.8 l 0.6,0.5 C 534.8,1002 626.4,906.3 556.5,817.6"
         fill="#89272d"
         stroke="none"
         stroke-width="1" />
    </g>
  </g>
</svg>
