<?xml version="1.0" encoding="UTF-8" standalone="no"?>
<!-- Created with Inkscape (http://www.inkscape.org/) -->
<svg xmlns:dc="http://purl.org/dc/elements/1.1/" xmlns:cc="http://creativecommons.org/ns#" xmlns:rdf="http://www.w3.org/1999/02/22-rdf-syntax-ns#" xmlns:svg="http://www.w3.org/2000/svg" xmlns="http://www.w3.org/2000/svg" xmlns:xlink="http://www.w3.org/1999/xlink" xmlns:inkscape="http://www.inkscape.org/namespaces/inkscape" xmlns:sodipodi="http://sodipodi.sourceforge.net/DTD/sodipodi-0.dtd" version="1.1" width="193.498" height="640.41876" id="svg3143" inkscape:version="0.91 r13725" xmlns:ns1="http://sozi.baierouge.fr">
  <defs id="defs3145">
    <filter x="-0.12918293" y="-0.035037205" width="1.2583659" height="1.0700744" color-interpolation-filters="sRGB" id="filter5879">
      <feGaussianBlur id="feGaussianBlur5881" stdDeviation="7.7905897"/>
    </filter>
    <linearGradient x1="329.49448" y1="492.21991" x2="327.63318" y2="498.14435" id="linearGradient6031" xlink:href="#linearGradient3972" gradientUnits="userSpaceOnUse"/>
    <linearGradient id="linearGradient3972">
      <stop id="stop3974" style="stop-color:#ffffff;stop-opacity:1" offset="0"/>
      <stop id="stop3976" style="stop-color:#ffffff;stop-opacity:0" offset="1"/>
    </linearGradient>
    <linearGradient x1="769.00342" y1="-369.18835" x2="769.55585" y2="-343.77695" id="linearGradient5861" xlink:href="#linearGradient5855" gradientUnits="userSpaceOnUse" gradientTransform="matrix(0.85455936,0,0,1,-242.81334,475.73147)"/>
    <linearGradient id="linearGradient5855">
      <stop id="stop5857" style="stop-color:#fdd99b;stop-opacity:1" offset="0"/>
      <stop id="stop5863" style="stop-color:#ffffff;stop-opacity:1" offset="0.30000001"/>
      <stop id="stop5859" style="stop-color:#fbaa20;stop-opacity:1" offset="1"/>
    </linearGradient>
    <linearGradient x1="774.8042" y1="-352.21582" x2="774.8042" y2="-335.19406" id="linearGradient6072" xlink:href="#linearGradient6066" gradientUnits="userSpaceOnUse" gradientTransform="translate(-353.90204,475.73147)"/>
    <linearGradient id="linearGradient6066">
      <stop id="stop6068" style="stop-color:#565248;stop-opacity:1" offset="0"/>
      <stop id="stop6070" style="stop-color:#000000;stop-opacity:1" offset="1"/>
    </linearGradient>
    <filter color-interpolation-filters="sRGB" id="filter5890">
      <feGaussianBlur id="feGaussianBlur5892" stdDeviation="1.2551613"/>
    </filter>
    <linearGradient x1="694.19995" y1="-90.756844" x2="834.94995" y2="-90.756844" id="linearGradient5844" xlink:href="#linearGradient5832" gradientUnits="userSpaceOnUse" gradientTransform="translate(-353.90204,475.73147)"/>
    <linearGradient id="linearGradient5832">
      <stop id="stop5834" style="stop-color:#ffffff;stop-opacity:1" offset="0"/>
      <stop id="stop5836" style="stop-color:#ffdbcc;stop-opacity:1" offset="0.10013322"/>
      <stop id="stop5838" style="stop-color:#ffe5db;stop-opacity:1" offset="0.52775311"/>
      <stop id="stop5840" style="stop-color:#bebebe;stop-opacity:1" offset="0.92206925"/>
      <stop id="stop5842" style="stop-color:#ffffff;stop-opacity:1" offset="1"/>
    </linearGradient>
    <linearGradient x1="694.19995" y1="-90.756844" x2="834.94995" y2="-90.756844" id="linearGradient5817" xlink:href="#linearGradient5785" gradientUnits="userSpaceOnUse" gradientTransform="translate(-353.90204,475.73147)"/>
    <linearGradient id="linearGradient5785">
      <stop id="stop5787" style="stop-color:#f44800;stop-opacity:1" offset="0"/>
      <stop id="stop5797" style="stop-color:#ff9c72;stop-opacity:1" offset="0.10013322"/>
      <stop id="stop5793" style="stop-color:#ef4600;stop-opacity:1" offset="0.52775311"/>
      <stop id="stop5795" style="stop-color:#b53500;stop-opacity:1" offset="0.92206925"/>
      <stop id="stop5789" style="stop-color:#f44800;stop-opacity:1" offset="1"/>
    </linearGradient>
    <filter x="-0.056188807" y="-0.11895466" width="1.1123776" height="1.2379093" color-interpolation-filters="sRGB" id="filter5913">
      <feGaussianBlur id="feGaussianBlur5915" stdDeviation="3.6786109"/>
    </filter>
  </defs>
  <metadata id="metadata3148">
    <rdf:RDF>
      <cc:Work rdf:about="">
        <dc:format>image/svg+xml</dc:format>
        <dc:type rdf:resource="http://purl.org/dc/dcmitype/StillImage"/>
        <dc:title/>
      </cc:Work>
    </rdf:RDF>
  </metadata>
  <g transform="translate(-320.39386,-37.867096)" id="layer1">
    <path d="m 781.87181,-424.17872 c -2.68301,0 -5.35039,1.03789 -7.40625,3.09375 l -71.15625,71.125 157.125,0 -71.125,-71.125 c -2.05586,-2.05586 -4.75449,-3.09375 -7.4375,-3.09375 z" transform="matrix(0.97058007,0,0.11049284,1,-298.91179,472.99709)" id="path5899" style="fill:none;stroke:#333333;stroke-width:4.19999981;stroke-linejoin:round;stroke-miterlimit:4;stroke-opacity:0.4745098;stroke-dasharray:none;filter:url(#filter5913)"/>
    <path d="m 410.39164,46.084006 c -2.68301,0 -5.35039,1.037891 -7.40625,3.093751 l -71.15625,71.125003 157.125,0 -71.125,-71.125003 c -2.05586,-2.05586 -4.75449,-3.093751 -7.4375,-3.093751 z" id="rect5894" style="fill:none;stroke:#333333;stroke-width:4.19999981;stroke-linejoin:round;stroke-miterlimit:4;stroke-dasharray:none"/>
    <path d="m 350.45849,125.9438 144.73595,0 0,533.64462 -75.68254,-38.03757 -69.05341,38.03757 z" id="path5865" style="fill:#000000;fill-opacity:0.44705882;stroke:none;filter:url(#filter5879)"/>
    <path d="m 338.30509,122.07681 144.73595,0 0,527.01549 -75.68254,-37.56505 -69.05341,37.56505 z" id="rect5778" style="fill:#980101;fill-opacity:1;stroke:none"/>
    <path d="m 342.28546,642.32522 c 21.67518,-11.75514 43.3307,-23.54666 65,-35.3125 23.89651,11.91498 47.82974,23.75735 71.75,35.625 0,-172.1875 0,-344.375 0,-516.56249 -45.58333,0 -91.16667,0 -136.75,0 0,172.08332 0,344.16666 0,516.24999 z" id="path5781" style="fill:url(#linearGradient5817);fill-opacity:1;stroke:none"/>
    <path d="m 346.29789,130.08401 0,505.49999 c 20.31294,-11.01999 40.61711,-22.05632 60.9375,-33.0625 22.58327,11.27917 45.18075,22.50707 67.81255,33.6875 l 0,-506.12499 -128.75005,0 z m 4,4 120.75,0 0,495.68749 c -21.32614,-10.52065 -42.604,-21.1172 -63.875,-31.75 -18.95869,10.28902 -37.91471,20.5587 -56.875,30.84375 l 0,-494.78124 z" id="path5799" style="fill:url(#linearGradient5844);fill-opacity:1;stroke:none"/>
    <path d="m 338.02891,120.14331 145.01213,0 0,32.59319 c 0,0 -91.15048,-11.04854 -145.01213,0 z" id="rect5883" style="fill:#000000;fill-opacity:0.24313725;stroke:none;filter:url(#filter5890)"/>
    <path d="m 324.17051,99.427287 c 79.78183,11.600973 172.30988,0 172.30988,0 6.60917,17.677673 0,41.984453 0,41.984453 0,0 -118.49255,-9.94368 -172.30988,0 0,0 -8.49747,-24.85921 0,-41.984453 z" id="rect5846" style="fill:url(#linearGradient6072);fill-opacity:1;stroke:none"/>
    <path d="m 490.21166,104.10648 c -54.54485,5.41577 -109.68031,6.70501 -164.1021,-0.3125 -3.79214,10.60697 -2.4013,22.54856 0.40057,33.1875 50.87003,-7.01303 102.22415,-3.45604 153.23318,-0.8125 4.61354,-0.19479 10.44423,1.67447 14.31387,0.375 2.08429,-10.75184 3.03646,-22.21631 0.13352,-32.84375 -1.32634,0.13542 -2.65269,0.27083 -3.97904,0.40625 z" id="path5849" style="fill:url(#linearGradient5861);fill-opacity:1;stroke:none"/>
    <g transform="matrix(1.2152368,0,0,1.2152368,11.253839,-555.45403)" id="g4902">
      <path d="m 333.625,496.36218 a 5.4375,5 0 1 1 -10.875,0 5.4375,5 0 1 1 10.875,0 z" transform="matrix(0.81015036,-0.58622213,0.52759992,0.72913533,-199.57437,327.08776)" id="path4904" style="fill:#000000;fill-opacity:1;stroke:none"/>
      <path d="m 333.625,496.36218 a 5.4375,5 0 1 1 -10.875,0 5.4375,5 0 1 1 10.875,0 z" transform="matrix(0.01319232,-1.0280567,0.96658049,0.21990994,-155.1372,726.43592)" id="path4906" style="fill:#000000;fill-opacity:0.42745098;stroke:none"/>
      <path d="m 333.625,496.36218 a 5.4375,5 0 1 1 -10.875,0 5.4375,5 0 1 1 10.875,0 z" transform="matrix(0.66718339,-0.46397512,0.43449453,0.57708612,-106.53416,362.05441)" id="path4908" style="fill:#8383e1;fill-opacity:1;stroke:none"/>
      <path d="m 333.625,496.36218 a 5.4375,5 0 1 1 -10.875,0 5.4375,5 0 1 1 10.875,0 z" transform="matrix(0.55298123,-0.43058996,0.43077858,0.42324286,-67.241235,427.14729)" id="path4910" style="fill:url(#linearGradient6031);fill-opacity:1;stroke:none"/>
    </g>
  </g>
</svg>
